Run_50002
nRows=4
nColumns=164

# SIMM Motion File Header:
name Run_50002
datacolumns 164
datarows 4
otherdata 1
range 0.03000000 0.06000000
endheader
time	pelvis_tilt	pelvis_list	pelvis_rotation	pelvis_tx	pelvis_ty	pelvis_tz	hip_flexion_r	hip_adduction_r	hip_rotation_r	knee_angle_r	ankle_angle_r	hip_flexion_l	hip_adduction_l	hip_rotation_l	knee_angle_l	ankle_angle_l	lumbar_extension	lumbar_bending	lumbar_rotation	arm_flex_r	arm_add_r	arm_rot_r	elbow_flex_r	pro_sup_r	arm_flex_l	arm_add_l	arm_rot_l	elbow_flex_l	pro_sup_l	subtalar_angle_r	mtp_angle_r	subtalar_angle_l	mtp_angle_l	wrist_flex_r	wrist_dev_r	wrist_flex_l	wrist_dev_l	LASI_tx	LASI_ty	LASI_tz	RASI_tx	RASI_ty	RASI_tz	LPSI_tx	LPSI_ty	LPSI_tz	RPSI_tx	RPSI_ty	RPSI_tz	RTH1_tx	RTH1_ty	RTH1_tz	RTH2_tx	RTH2_ty	RTH2_tz	RTH3_tx	RTH3_ty	RTH3_tz	LTH1_tx	LTH1_ty	LTH1_tz	LTH2_tx	LTH2_ty	LTH2_tz	LTH3_tx	LTH3_ty	LTH3_tz	RTB1_tx	RTB1_ty	RTB1_tz	RTB2_tx	RTB2_ty	RTB2_tz	RTB3_tx	RTB3_ty	RTB3_tz	LTB1_tx	LTB1_ty	LTB1_tz	LTB2_tx	LTB2_ty	LTB2_tz	LTB3_tx	LTB3_ty	LTB3_tz	RCAL_tx	RCAL_ty	RCAL_tz	RTOE_tx	RTOE_ty	RTOE_tz	RMT5_tx	RMT5_ty	RMT5_tz	LCAL_tx	LCAL_ty	LCAL_tz	LTOE_tx	LTOE_ty	LTOE_tz	LMT5_tx	LMT5_ty	LMT5_tz	LACR_tx	LACR_ty	LACR_tz	RACR_tx	RACR_ty	RACR_tz	CLAV_tx	CLAV_ty	CLAV_tz	C7_tx	C7_ty	C7_tz	RUA1_tx	RUA1_ty	RUA1_tz	RUA2_tx	RUA2_ty	RUA2_tz	RUA3_tx	RUA3_ty	RUA3_tz	RLEL_tx	RLEL_ty	RLEL_tz	RMEL_tx	RMEL_ty	RMEL_tz	LUA1_tx	LUA1_ty	LUA1_tz	LUA2_tx	LUA2_ty	LUA2_tz	LUA3_tx	LUA3_ty	LUA3_tz	LLEL_tx	LLEL_ty	LLEL_tz	LMEL_tx	LMEL_ty	LMEL_tz	RFAsuperior_tx	RFAsuperior_ty	RFAsuperior_tz	RFAradius_tx	RFAradius_ty	RFAradius_tz	RFAulna_tx	RFAulna_ty	RFAulna_tz	LFAsuperior_tx	LFAsuperior_ty	LFAsuperior_tz	LFAradius_tx	LFAradius_ty	LFAradius_tz	LFAulna_tx	LFAulna_ty	LFAulna_tz
      0.03000000	     -7.94052846	      4.03688981	      3.39989575	      0.80256904	      0.93500675	     -0.31183363	     15.73425449	     -7.17804817	     -5.19784660	   -135.72605793	    -10.99713137	     34.52169998	     11.89384191	     -1.41692192	    -42.49390117	     12.64266515	     -8.10366565	     -7.65929201	      0.00674197	    -30.66787057	    -29.35048627	     -8.25368570	     98.75066310	     95.99281827	    -23.55767644	    -30.80567206	    -11.59168869	    104.10635623	    115.44669701	      0.00000000	      0.00000000	      0.00000000	      0.00000000	      0.00000000	      0.00000000	      0.00000000	      0.00000000	      0.80801648	      0.96071349	     -0.43216351	      0.81704016	      0.95222492	     -0.19495380	      0.64672140	      1.00964974	     -0.35601086	      0.64943922	      1.00270980	     -0.25661957	      0.76276825	      0.71752969	     -0.12403165	      0.82827836	      0.63510532	     -0.12713668	      0.78430122	      0.54779365	     -0.13175092	      0.80409090	      0.77380092	     -0.47818809	      0.89170195	      0.70021375	     -0.45189733	      0.87419871	      0.57997931	     -0.43195731	      0.67047293	      0.48228376	     -0.21353263	      0.61168940	      0.54766693	     -0.16712033	      0.51131839	      0.58588903	     -0.23463737	      0.91699146	      0.39454050	     -0.33646048	      0.86031632	      0.31317170	     -0.40204400	      0.85960044	      0.20930667	     -0.31788728	      0.49119807	      0.71170622	     -0.26585429	      0.31251934	      0.58135860	     -0.26611496	      0.32888801	      0.63691770	     -0.17082444	      0.72719099	      0.10745138	     -0.29840584	      0.94488049	      0.06851617	     -0.29347053	      0.89682500	      0.05098668	     -0.39378708	      0.82806209	      1.42580347	     -0.48491556	      0.84603694	      1.44130475	     -0.18609349	      0.92351698	      1.35693644	     -0.31870620	      0.78869514	      1.46622838	     -0.32929133	      0.78774785	      1.36731948	     -0.07318412	      0.70426829	      1.33045444	     -0.07716027	      0.73219630	      1.27961798	     -0.00354833	      0.68885637	      1.23900992	      0.04130289	      0.64437408	      1.21105027	     -0.01583707	      0.73860205	      1.34091510	     -0.57481845	      0.68220442	      1.28872965	     -0.53699605	      0.69980709	      1.25850675	     -0.61788702	      0.65104312	      1.19573937	     -0.65141787	      0.62946449	      1.16430986	     -0.58832044	      0.78230248	      1.16711120	      0.03070589	      0.86124694	      1.08537688	     -0.05051666	      0.83122230	      1.04668241	      0.00154652	      0.76344591	      1.15920525	     -0.64165432	      0.86056578	      1.07784229	     -0.57656957	      0.83987140	      1.04824149	     -0.63762794
      0.04000000	     -7.45364289	      4.67740367	      4.01431837	      0.79959018	      0.93389691	     -0.31252567	     20.46604721	     -8.00795454	     -4.09400079	   -139.64047332	     -9.95867089	     31.69392129	     12.68094529	     -1.00755479	    -43.99774409	     15.76716595	     -9.34863090	     -8.25376498	     -1.76675440	    -32.27712372	    -27.83901194	     -8.76723586	     94.94951144	     95.28133901	    -19.63002734	    -31.75930207	    -10.71065749	    102.30152006	    116.42599848	      0.00000000	      0.00000000	      0.00000000	      0.00000000	      0.00000000	      0.00000000	      0.00000000	      0.00000000	      0.80404998	      0.96115269	     -0.43459344	      0.81430508	      0.94928741	     -0.19509883	      0.64339282	      1.00765991	     -0.35451176	      0.64652234	      1.00022221	     -0.25558360	      0.77745922	      0.71657905	     -0.12382662	      0.85396352	      0.64200990	     -0.12875078	      0.81617571	      0.55079633	     -0.13094495	      0.79779466	      0.77343551	     -0.47796542	      0.87901510	      0.69626557	     -0.45366863	      0.85624807	      0.57390070	     -0.43065018	      0.70700591	      0.48344586	     -0.21442916	      0.64698637	      0.54600605	     -0.16544346	      0.54622487	      0.58323474	     -0.23254758	      0.89531561	      0.38327124	     -0.34254359	      0.82996595	      0.30802520	     -0.40194370	      0.82184274	      0.20387441	     -0.31887960	      0.51964765	      0.71127964	     -0.26122109	      0.34689866	      0.57250608	     -0.26057414	      0.36407070	      0.62518884	     -0.16428983	      0.68196082	      0.10843944	     -0.30068410	      0.89960807	      0.06767957	     -0.29485394	      0.85140838	      0.05077820	     -0.39560195	      0.82846914	      1.42244930	     -0.48389686	      0.84508157	      1.43748113	     -0.18416055	      0.92277034	      1.35362900	     -0.31701255	      0.79039823	      1.46346401	     -0.32855499	      0.78270339	      1.36497508	     -0.07319724	      0.69809262	      1.32945010	     -0.08491256	      0.71920058	      1.28039518	     -0.00776145	      0.67272666	      1.24132783	      0.03606747	      0.63006257	      1.21494913	     -0.02321310	      0.74532451	      1.33216571	     -0.57500538	      0.68964876	      1.27698915	     -0.54076621	      0.71152299	      1.24942628	     -0.62060867	      0.66815717	      1.18432638	     -0.65744336	      0.64528522	      1.15081173	     -0.59593153	      0.76063914	      1.16168195	      0.03185624	      0.83722851	      1.07167030	     -0.04142030	      0.80039425	      1.03670905	      0.00883194	      0.78197483	      1.15049522	     -0.64338675	      0.87908093	      1.07002942	     -0.57785190	      0.86178926	      1.04109462	     -0.64039366
      0.05000000	     -7.11737204	      5.04054176	      4.34781526	      0.79692638	      0.93266151	     -0.31256032	     25.59338839	     -8.36535416	     -2.79453057	   -142.46811966	     -8.70388292	     28.61204496	     13.12607040	     -0.35766618	    -44.70897119	     18.69632483	    -10.31501528	     -8.56577215	     -3.30184096	    -33.94563312	    -26.55023268	     -9.22907002	     91.80300415	     94.24035117	    -15.95483255	    -32.61418551	    -10.04354480	    101.09076901	    117.34403455	      0.00000000	      0.00000000	      0.00000000	      0.00000000	      0.00000000	      0.00000000	      0.00000000	      0.00000000	      0.80046853	      0.96093722	     -0.43605216	      0.81157368	      0.94746988	     -0.19470565	      0.64066026	      1.00661140	     -0.35329870	      0.64370844	      0.99863425	     -0.25475092	      0.79212666	      0.71812373	     -0.12402073	      0.87768084	      0.65182702	     -0.13039735	      0.84723247	      0.55718895	     -0.13101066	      0.79137172	      0.77144943	     -0.47757587	      0.86680517	      0.68822812	     -0.45404915	      0.83686475	      0.56682545	     -0.42916191	      0.74327669	      0.48584954	     -0.21549550	      0.68131747	      0.54514312	     -0.16416669	      0.57866958	      0.57880723	     -0.23067149	      0.87037091	      0.37236815	     -0.34566723	      0.79926461	      0.30235938	     -0.40107179	      0.78341865	      0.19902193	     -0.31903157	      0.54355547	      0.70767398	     -0.25712433	      0.38075782	      0.55724280	     -0.25561424	      0.39749984	      0.60799656	     -0.15835481	      0.63737785	      0.10932127	     -0.30244233	      0.85504116	      0.06702384	     -0.29589956	      0.80667086	      0.05060102	     -0.39692371	      0.82967960	      1.41962176	     -0.48261998	      0.84459086	      1.43421873	     -0.18238822	      0.92222814	      1.35045125	     -0.31529282	      0.79115961	      1.46134251	     -0.32736680	      0.77728846	      1.36346451	     -0.07307618	      0.69240090	      1.32967013	     -0.09210433	      0.70631928	      1.28240577	     -0.01177010	      0.65660260	      1.24513603	      0.03069677	      0.61599212	      1.22009393	     -0.03048712	      0.75179216	      1.32462542	     -0.57383464	      0.69742913	      1.26602490	     -0.54333019	      0.72343955	      1.24137009	     -0.62287676	      0.68561550	      1.17420610	     -0.66279761	      0.66176615	      1.13862610	     -0.60266016	      0.73885041	      1.15863174	      0.03271610	      0.81313018	      1.06152979	     -0.03386178	      0.77029521	      1.02994728	      0.01382807	      0.80065243	      1.14367927	     -0.64516614	      0.89842005	      1.06543496	     -0.57778058	      0.88468604	      1.03702800	     -0.64142489
      0.06000000	     -7.08959700	      4.87116011	      4.39710138	      0.79456883	      0.93149328	     -0.31194336	     31.25877255	     -7.90654519	     -1.61805692	   -143.77763891	     -7.11595240	     25.44318944	     12.97425132	      0.46144721	    -44.55126039	     21.46946768	    -10.77535529	     -8.31784973	     -4.57807402	    -35.83721608	    -25.62176880	     -9.57210130	     89.82654878	     92.93609720	    -12.63540163	    -33.25052917	     -9.71241861	    100.79733523	    118.26784773	      0.00000000	      0.00000000	      0.00000000	      0.00000000	      0.00000000	      0.00000000	      0.00000000	      0.00000000	      0.79748091	      0.95964576	     -0.43617854	      0.80913456	      0.94728049	     -0.19366345	      0.63869579	      1.00674162	     -0.35255578	      0.64118722	      0.99830593	     -0.25419917	      0.80632763	      0.72295335	     -0.12479882	      0.89849028	      0.66552519	     -0.13203687	      0.87672809	      0.56845771	     -0.13226695	      0.78383896	      0.76712804	     -0.47696033	      0.85415864	      0.67572484	     -0.45327987	      0.81571311	      0.55865437	     -0.42769685	      0.77901093	      0.49020368	     -0.21687843	      0.71400143	      0.54521219	     -0.16363248	      0.60788331	      0.57159241	     -0.22925978	      0.84116988	      0.36253291	     -0.34518455	      0.76762494	      0.29658580	     -0.39955885	      0.74441411	      0.19515868	     -0.31836623	      0.56101637	      0.69866648	     -0.25372732	      0.41464684	      0.53256011	     -0.25147244	      0.42882245	      0.58284533	     -0.15337250	      0.59385006	      0.11016735	     -0.30334823	      0.81146361	      0.06658001	     -0.29648753	      0.76293350	      0.05050479	     -0.39764402	      0.83197868	      1.41768966	     -0.48099260	      0.84443549	      1.43194033	     -0.18079884	      0.92194429	      1.34770970	     -0.31335824	      0.79079175	      1.46025370	     -0.32561387	      0.77118018	      1.36344235	     -0.07285764	      0.68674927	      1.33217043	     -0.09795485	      0.69369797	      1.28623891	     -0.01548349	      0.64068404	      1.25109340	      0.02514601	      0.60246421	      1.22712519	     -0.03773166	      0.75799156	      1.31903648	     -0.57152367	      0.70581501	      1.25640876	     -0.54454597	      0.73565274	      1.23502986	     -0.62445768	      0.70356124	      1.16616038	     -0.66709673	      0.67924611	      1.12860119	     -0.60807019	      0.71724148	      1.15917700	      0.03291711	      0.78941287	      1.05687701	     -0.02865640	      0.74181361	      1.02796101	      0.01574564	      0.81949438	      1.14005821	     -0.64638292	      0.91852937	      1.06579603	     -0.57561104	      0.90878337	      1.03770964	     -0.63981500
